<?xml version="1.0" standalone="no"?>
<!DOCTYPE svg PUBLIC "-//W3C//DTD SVG 20010904//EN"
 "http://www.w3.org/TR/2001/REC-SVG-20010904/DTD/svg10.dtd">
<svg version="1.0" xmlns="http://www.w3.org/2000/svg"
 width="260.000000pt" height="260.000000pt" viewBox="0 0 260.000000 260.000000"
 preserveAspectRatio="xMidYMid meet">
<metadata>
Created by potrace 1.11, written by Peter Selinger 2001-2013
</metadata>
<g transform="translate(0.000000,260.000000) scale(0.100000,-0.100000)"
fill="#000000" stroke="none">
<path d="M293 2261 c-6 -3 -32 -37 -58 -76 -173 -252 -224 -591 -133 -875 41
-128 122 -262 206 -344 37 -35 42 -37 56 -23 24 23 208 120 326 170 266 113
552 184 858 212 l62 6 0 -49 c0 -27 7 -88 15 -136 15 -83 14 -87 -4 -107 -27
-29 -30 -50 -15 -94 9 -27 10 -44 2 -60 -14 -30 -3 -86 21 -112 13 -13 16 -25
10 -34 -15 -24 -10 -92 9 -124 12 -19 16 -39 12 -55 -9 -36 5 -88 31 -116 30
-32 76 -45 151 -44 35 1 111 -2 170 -5 127 -9 223 3 363 46 55 16 128 33 163
36 l62 6 0 218 0 219 -60 0 c-76 0 -106 15 -149 77 -98 140 -202 193 -380 193
-72 0 -82 2 -77 16 3 9 6 38 6 65 l0 49 65 0 c51 0 69 4 81 19 14 16 27 18 98
14 95 -6 98 -5 121 82 18 69 19 154 4 225 -16 75 -27 82 -128 79 -47 -1 -106
4 -131 10 -39 11 -106 22 -217 36 -17 2 -49 8 -70 14 -21 6 -54 13 -73 16 -19
3 -46 7 -60 10 -14 3 -41 7 -60 11 -292 52 -590 147 -915 291 -55 24 -116 52
-135 62 -19 10 -46 22 -60 26 -14 4 -36 15 -50 25 -27 18 -101 32 -117 21z"/>
<path d="M120 1003 c1 -35 38 -100 74 -130 40 -33 106 -57 119 -44 4 4 -11 13
-33 20 -51 15 -104 68 -122 122 -15 44 -38 64 -38 32z"/>
<path d="M15 958 c13 -42 57 -98 103 -128 25 -16 49 -30 54 -30 18 0 6 20 -21
34 -36 19 -83 72 -100 114 -16 37 -46 45 -36 10z"/>
</g>
</svg>
