<svg xmlns:dc="http://purl.org/dc/elements/1.1/" xmlns:cc="http://creativecommons.org/ns#" xmlns:rdf="http://www.w3.org/1999/02/22-rdf-syntax-ns#" xmlns:svg="http://www.w3.org/2000/svg" xmlns="http://www.w3.org/2000/svg" height="79" width="428" version="1.1"><rect id="backgroundrect" width="100%" height="100%" x="0" y="0" fill="none" stroke="none" class="" style=""/>
  <metadata id="metadata54">
    <rdf:RDF>
      <cc:Work rdf:about="">
        <dc:format>image/svg+xml</dc:format>
        <dc:type rdf:resource="http://purl.org/dc/dcmitype/StillImage"/>
      </cc:Work>
    </rdf:RDF>
  </metadata>
  <defs id="defs52"/>
  
  
<g class="currentLayer" style=""><title>Layer 1</title>
    
    <g id="Layer1003" class="" opacity="1" transform="">
      <path id="path28" style="fill:#ffec00;fill-rule:evenodd;stroke:#1b1918;stroke-width:0.21600001;stroke-linecap:butt;stroke-linejoin:miter;stroke-dasharray:none" d="m 260.105 19.2772 l -31.519 54.154 c -1.3089 2.2481 -4.2079 3.0202 -6.4755 1.7215 l -21.3436 -12.2246 c -2.2673 -1.2976 -3.0444 -4.173 -1.736 -6.4221 l 31.52 -54.1558 c 1.3098 -2.2481 4.2078 -3.0173 6.4739 -1.7196 l 21.3453 12.2241 c 2.2674 1.2983 3.0447 4.1744 1.7349 6.4225 Z" opacity="1" transform=""/>
      <path id="path30" style="fill:#1b1918;fill-rule:evenodd" d="m 251.849 27.4728 l -24.2151 41.6039 l -24.0693 -13.7859 l 5.081 -8.7299 l -0.0201 -0.0115 l 24.2147 -41.6025 l 24.0696 13.7845 l -5.081 8.7299 Z" opacity="1" transform=""/>
      <path id="path32" style="fill:#ffffff;fill-rule:evenodd" d="m 32.9632 64.317 v -25.3446 l 20.0484 -35.4455 h -15.4427 l -6.141 14.6119 c -1.8068 4.3286 -3.2509 7.8472 -4.6052 11.6351 h -0.182 c -1.5347 -3.9695 -2.7997 -7.2159 -4.696 -11.6351 L 15.7135 3.52691 H 0 l 19.2359 35.8967 v 24.8934 Z" opacity="1" transform=""/>
      <path id="path34" style="fill:#ffec00;fill-rule:evenodd;stroke:#1b1918;stroke-width:0.21600001;stroke-linecap:butt;stroke-linejoin:miter;stroke-dasharray:none" d="m 65.6876 39.608 l 3.6133 -12.8979 c 0.9924 -3.5172 1.8949 -8.1173 2.7993 -11.7249 l 0.1802 -0.0004 c 0.9026 3.6078 1.9878 8.1175 3.0705 11.7256 l 3.7935 12.8976 Z m 15.4434 10.281 l 4.6963 15.6042 h 14.8105 l -18.8747 -60.7901 h -18.0619 l -18.6034 60.7901 h 14.2681 l 4.3353 -15.6042 Z" opacity="1" transform=""/>
      <path id="path36" style="fill:#ffec00;fill-rule:evenodd;stroke:#1b1918;stroke-width:0.21600001;stroke-linecap:butt;stroke-linejoin:miter;stroke-dasharray:none" d="m 119.914 15.165 c 0.9931 -0.2703 2.8896 -0.5406 5.6903 -0.5406 c 6.864 0 10.7472 3.3372 10.7472 8.9293 c 0.0002 6.2231 -4.5161 9.9208 -11.8318 9.9208 c -1.9864 -0.0006 -3.4317 -0.0907 -4.6058 -0.3601 Z m -13.6365 50.3282 h 13.6365 v -21.7375 c 1.2642 0.1809 2.8896 0.2705 4.6964 0.2705 c 8.1289 -0.0002 15.082 -1.9834 19.7768 -6.403 c 3.6126 -3.4278 5.599 -8.478 5.599 -14.4303 c 0.0001 -5.953 -2.6187 -11.0037 -6.5016 -14.0699 c -4.0637 -3.2474 -10.1146 -4.8702 -18.6032 -4.8702 c -8.3992 -0.0002 -14.3593 0.5415 -18.6039 1.2624 Z" opacity="1" transform=""/>
      <path id="path38" style="fill:#ffec00;fill-rule:evenodd;stroke:#1b1918;stroke-width:0.21600001;stroke-linecap:butt;stroke-linejoin:miter;stroke-dasharray:none" d="m 169.5 15.165 c 0.9925 -0.2703 2.89 -0.5406 5.6895 -0.5406 c 6.8628 0 10.7462 3.3372 10.7462 8.9293 c 0 6.2231 -4.5151 9.9208 -11.8301 9.9208 c -1.9864 -0.0006 -3.4311 -0.0907 -4.6058 -0.3601 Z m -13.6371 50.3282 h 13.6371 v -21.7375 c 1.2641 0.1809 2.89 0.2705 4.6956 0.2705 c 8.1284 -0.0002 15.0822 -1.9834 19.7788 -6.403 c 3.6119 -3.4278 5.5989 -8.478 5.5989 -14.4303 c 0.0002 -5.953 -2.6187 -11.0037 -6.5021 -14.0699 c -4.0649 -3.2474 -10.1159 -4.8702 -18.6051 -4.8702 c -8.3985 -0.0002 -14.3588 0.5415 -18.6034 1.2624 Z" opacity="1" transform=""/>
      <path id="path40" style="fill:#ffec00;fill-rule:evenodd;stroke:#1b1918;stroke-width:0.21600001;stroke-linecap:butt;stroke-linejoin:miter;stroke-dasharray:none" d="m 212.078 2.17769 c -4.4252 0 -7.3158 2.977 -7.225 6.9453 c -0.0906 3.7877 2.7994 6.8542 7.1335 6.8542 c 4.5163 0 7.4053 -3.066 7.4053 -6.8542 c -0.0895001 -3.9687 -2.889 -6.9448 -7.3138 -6.9453 Z m 6.8635 61.1553 V 21.3883 h -13.7273 v 34.0822 Z" opacity="1" transform=""/>
      <path id="path42" style="fill:#1b1918;fill-rule:evenodd;stroke:#1b1918;stroke-width:0.21600001;stroke-linecap:butt;stroke-linejoin:miter;stroke-dasharray:none" d="m 216.03 66.7377 c -0.7221 1.2355 -2.3161 1.6609 -3.5615 0.9462 c -1.248 -0.7142 -1.6746 -2.2962 -0.9548 -3.533 c 0.7201 -1.2369 2.3128 -1.6605 3.5615 -0.946 c 1.2471 0.7134 1.674 2.295 0.9548 3.5328 Z" opacity="1" transform=""/>
      <path id="path44" style="fill:#ffffff;fill-rule:evenodd;stroke:#ffffff;stroke-width:0.21600001;stroke-linecap:butt;stroke-linejoin:miter;stroke-dasharray:none" d="m 280.816 64.7448 v -48.7252 h 16.8069 c 3.7929 0 6.6887 0.2269 8.6873 0.692 c 2.7936 0.6463 5.1784 1.8146 7.1543 3.4932 c 2.5777 2.1777 4.4969 4.9452 5.7689 8.3251 c 1.2831 3.3799 1.919 7.2474 1.919 11.5915 c 0 3.6974 -0.4315 6.9752 -1.2945 9.8334 c -0.8631 2.8581 -1.9759 5.2286 -3.3273 7.1001 c -1.3627 1.8715 -2.839 3.346 -4.4516 4.412 c -1.6011 1.0775 -3.543 1.8942 -5.8143 2.4499 c -2.2825 0.5557 -4.8944 0.828 -7.847 0.828 Z m 6.4729 -5.7163 h 10.402 c 3.2139 0 5.7349 -0.295 7.5632 -0.8961 c 1.8283 -0.6011 3.2819 -1.4405 4.3721 -2.5293 c 1.5216 -1.5311 2.7141 -3.5954 3.5658 -6.1814 c 0.8517 -2.5859 1.2832 -5.7163 1.2832 -9.4025 c 0 -5.1038 -0.8405 -9.0281 -2.5097 -11.773 c -1.6694 -2.7446 -3.7021 -4.5821 -6.0981 -5.5121 c -1.7261 -0.6693 -4.5084 -0.9982 -8.3467 -0.9982 h -10.2318 Z m 65.0812 1.2928 c -2.2258 1.8942 -4.3721 3.2212 -6.4276 4.0038 c -2.0554 0.7825 -4.2583 1.1682 -6.6205 1.1682 c -3.8837 0 -6.8703 -0.9414 -8.9598 -2.8354 c -2.0894 -1.8829 -3.1342 -4.2987 -3.1342 -7.2362 c 0 -1.724 0.3975 -3.3005 1.181 -4.7296 c 0.7949 -1.4291 1.8283 -2.5634 3.1002 -3.4253 c 1.2832 -0.8621 2.7141 -1.5199 4.3153 -1.9621 c 1.181 -0.3064 2.9638 -0.6011 5.3373 -0.8961 c 4.8376 -0.5671 8.4147 -1.2591 10.6972 -2.0529 c 0.0227 -0.8167 0.0342 -1.3384 0.0342 -1.5538 c 0 -2.4272 -0.5679 -4.1399 -1.7034 -5.1379 c -1.5331 -1.3497 -3.8156 -2.0189 -6.8364 -2.0189 c -2.8277 0 -4.9171 0.499 -6.257 1.4857 c -1.3514 0.9869 -2.3395 2.7334 -2.9868 5.2514 l -5.8595 -0.8167 c 0.5336 -2.5065 1.4081 -4.5367 2.6345 -6.0791 c 1.2265 -1.5426 2.9979 -2.7222 5.3146 -3.5616 c 2.3053 -0.8279 4.9966 -1.2476 8.0399 -1.2476 c 3.0208 0 5.485 0.3516 7.3815 1.0662 c 1.8851 0.7146 3.2819 1.5993 4.1676 2.6767 c 0.8857 1.0775 1.5103 2.4385 1.8738 4.0831 c 0.1931 1.0209 0.2953 2.8582 0.2953 5.5009 v 7.9394 c 0 5.5461 0.1249 9.0508 0.3748 10.5367 c 0.2383 1.4858 0.738 2.9036 1.4648 4.2646 h -6.2685 c -0.6019 -1.259 -0.9879 -2.7334 -1.1583 -4.4235 Z m -0.4769 -13.2701 c -2.1804 0.8848 -5.451 1.6334 -9.8117 2.2458 c -2.4755 0.3516 -4.2243 0.7486 -5.2464 1.191 c -1.0221 0.4422 -1.8056 1.0887 -2.362 1.9281 c -0.5564 0.8507 -0.8404 1.7919 -0.8404 2.8355 c 0 1.5765 0.6018 2.9035 1.817 3.9583 c 1.215 1.0548 2.9866 1.5878 5.3146 1.5878 c 2.3053 0 4.3607 -0.4991 6.1663 -1.5085 c 1.7942 -0.9981 3.1228 -2.3705 3.9632 -4.1058 c 0.647401 -1.3497 0.9652 -3.3345 0.9652 -5.9545 Z m 15.0013 31.2699 l -0.6815 -5.5349 c 1.3174 0.3516 2.453 0.532999 3.4296 0.532999 c 1.3401 0 2.4074 -0.2268 3.2024 -0.669 c 0.8063 -0.4424 1.4649 -1.0663 1.976 -1.8603 c 0.3747 -0.6011 0.9879 -2.0868 1.8283 -4.4686 c 0.1135 -0.3289 0.2838 -0.8167 0.5337 -1.463 L 363.76 29.4258 h 6.4049 l 7.3813 20.3929 c 0.9653 2.5747 1.817 5.2966 2.5778 8.155 c 0.6928 -2.6882 1.5105 -5.3422 2.4644 -7.9508 l 7.5402 -20.5971 h 5.9847 l -13.366 35.9313 c -1.4423 3.8677 -2.5664 6.5218 -3.3728 7.9848 c -1.0673 1.9623 -2.2938 3.4026 -3.6679 4.3214 c -1.3854 0.9187 -3.0321 1.3724 -4.9399 1.3724 c -1.1582 0 -2.4529 -0.2383 -3.8723 -0.7146 Z m 31.9556 -24.1243 l 5.928 -0.9527 c 0.3293 2.3703 1.2604 4.1851 2.7822 5.4555 c 1.5215 1.2589 3.6566 1.894 6.3819 1.894 c 2.7595 0 4.8037 -0.5558 6.1436 -1.6786 c 1.3287 -1.1115 1.9987 -2.4272 1.9987 -3.9357 c 0 -1.3497 -0.6019 -2.4159 -1.7941 -3.187 c -0.8405 -0.5332 -2.8846 -1.2023 -6.1323 -2.0302 c -4.3835 -1.1002 -7.4155 -2.0529 -9.1189 -2.8583 c -1.692 -0.8166 -2.9754 -1.9282 -3.8496 -3.3573 c -0.8744 -1.4176 -1.3174 -2.9941 -1.3174 -4.7181 c 0 -1.5766 0.3635 -3.0284 1.0788 -4.3668 c 0.7268 -1.3383 1.7034 -2.4497 2.9412 -3.3345 c 0.9313 -0.6805 2.2031 -1.2589 3.8043 -1.7353 c 1.6125 -0.4763 3.3273 -0.7146 5.1669 -0.7146 c 2.771 0 5.2011 0.397 7.2906 1.2022 c 2.1009 0.794 3.6454 1.8829 4.6445 3.2439 c 0.9881 1.3724 1.6807 3.1985 2.0555 5.4895 l -5.8596 0.8167 c -0.2613 -1.8373 -1.0335 -3.2779 -2.3053 -4.3099 c -1.2719 -1.0321 -3.0662 -1.5426 -5.3942 -1.5426 c -2.7368 0 -4.7013 0.4536 -5.871 1.3611 c -1.1696 0.9073 -1.7601 1.9734 -1.7601 3.1871 c 0 0.7713 0.2385 1.4745 0.726699 2.0983 c 0.4884 0.6351 1.2492 1.1681 2.294 1.5878 c 0.6019 0.2268 2.3506 0.7371 5.2805 1.5311 c 4.2245 1.1229 7.1771 2.0529 8.8577 2.7675 c 1.6807 0.7145 2.9979 1.7693 3.9518 3.1304 c 0.9654 1.3724 1.4423 3.0737 1.4423 5.1152 c 0 1.9848 -0.5791 3.8563 -1.7489 5.6142 c -1.1697 1.7582 -2.8504 3.1192 -5.042 4.0831 c -2.2031 0.9642 -4.69 1.4405 -7.4609 1.4405 c -4.5879 0 -8.0969 -0.9527 -10.5043 -2.8468 c -2.4075 -1.9055 -3.9405 -4.7182 -4.6106 -8.4497 Z" opacity="1" transform=""/>
    </g>
  </g></svg>